<mxfile host="app.diagrams.net" modified="2023-01-06T09:10:02.749Z" agent="5.0 (Macintosh; Intel Mac OS X 10_15_7) AppleWebKit/537.36 (KHTML, like Gecko) Chrome/108.0.0.0 Safari/537.36" version="20.8.1" etag="8f4IEYIeBu2To-Q_Ti1E" type="github">
  <diagram id="i0_R2y9QbWZmd7wJ3Pf0" name="Page-1">
    <mxGraphModel dx="1026" dy="536" grid="1" gridSize="10" guides="1" tooltips="1" connect="1" arrows="1" fold="1" page="1" pageScale="1" pageWidth="850" pageHeight="1100" math="0" shadow="0">
      <root>
        <mxCell id="0" />
        <mxCell id="1" parent="0" />
        <mxCell id="L7Wl643dge-Ks9TR_aHD-3" style="edgeStyle=orthogonalEdgeStyle;rounded=0;orthogonalLoop=1;jettySize=auto;html=1;exitX=1;exitY=0.5;exitDx=0;exitDy=0;entryX=0;entryY=0.5;entryDx=0;entryDy=0;" edge="1" parent="1" source="L7Wl643dge-Ks9TR_aHD-1" target="L7Wl643dge-Ks9TR_aHD-2">
          <mxGeometry relative="1" as="geometry" />
        </mxCell>
        <mxCell id="L7Wl643dge-Ks9TR_aHD-4" value="OnFight" style="edgeLabel;html=1;align=center;verticalAlign=middle;resizable=0;points=[];" vertex="1" connectable="0" parent="L7Wl643dge-Ks9TR_aHD-3">
          <mxGeometry x="-0.2667" y="3" relative="1" as="geometry">
            <mxPoint x="7" y="3" as="offset" />
          </mxGeometry>
        </mxCell>
        <mxCell id="L7Wl643dge-Ks9TR_aHD-1" value="Home Screen" style="rounded=0;whiteSpace=wrap;html=1;" vertex="1" parent="1">
          <mxGeometry x="80" y="150" width="120" height="60" as="geometry" />
        </mxCell>
        <mxCell id="L7Wl643dge-Ks9TR_aHD-6" style="edgeStyle=orthogonalEdgeStyle;rounded=0;orthogonalLoop=1;jettySize=auto;html=1;exitX=1;exitY=0.5;exitDx=0;exitDy=0;entryX=0;entryY=0.5;entryDx=0;entryDy=0;" edge="1" parent="1" source="L7Wl643dge-Ks9TR_aHD-2" target="L7Wl643dge-Ks9TR_aHD-5">
          <mxGeometry relative="1" as="geometry" />
        </mxCell>
        <mxCell id="L7Wl643dge-Ks9TR_aHD-7" value="Play Button" style="edgeLabel;html=1;align=center;verticalAlign=middle;resizable=0;points=[];" vertex="1" connectable="0" parent="L7Wl643dge-Ks9TR_aHD-6">
          <mxGeometry x="-0.225" relative="1" as="geometry">
            <mxPoint x="11" as="offset" />
          </mxGeometry>
        </mxCell>
        <mxCell id="L7Wl643dge-Ks9TR_aHD-2" value="Helping Screen" style="rounded=0;whiteSpace=wrap;html=1;" vertex="1" parent="1">
          <mxGeometry x="290" y="150" width="120" height="60" as="geometry" />
        </mxCell>
        <mxCell id="L7Wl643dge-Ks9TR_aHD-5" value="Gameplay Screen" style="rounded=0;whiteSpace=wrap;html=1;" vertex="1" parent="1">
          <mxGeometry x="510" y="150" width="120" height="60" as="geometry" />
        </mxCell>
        <mxCell id="L7Wl643dge-Ks9TR_aHD-8" value="API OwnedAircraft&lt;br&gt;OwnedEquipment" style="text;html=1;align=center;verticalAlign=middle;resizable=0;points=[];autosize=1;strokeColor=none;fillColor=none;" vertex="1" parent="1">
          <mxGeometry x="80" y="220" width="120" height="40" as="geometry" />
        </mxCell>
        <mxCell id="L7Wl643dge-Ks9TR_aHD-9" value="Tính toán xong hết chỉ số player dưới client&lt;br&gt;&amp;nbsp;" style="text;html=1;align=center;verticalAlign=middle;resizable=0;points=[];autosize=1;strokeColor=none;fillColor=none;" vertex="1" parent="1">
          <mxGeometry x="220" y="230" width="260" height="40" as="geometry" />
        </mxCell>
      </root>
    </mxGraphModel>
  </diagram>
</mxfile>
